<?xml version="1.0" encoding="UTF-8"?>
<svg id="FLAGS" xmlns="http://www.w3.org/2000/svg" viewBox="0 0 100 100">
  <g id="UnitedKingdom">
    <g>
      <path d="M101,50c0,2.18-.14,4.34-.41,6.45-.3,2.33-.76,4.61-1.38,6.83-1.61,5.85-4.25,11.28-7.74,16.06-.54.76-1.11,1.5-1.69,2.22-1.23,1.51-2.54,2.93-3.93,4.27-1.72,1.68-3.56,3.24-5.51,4.64-4.78,3.49-10.21,6.13-16.06,7.74-2.22.62-4.5,1.08-6.83,1.38-2.11.27-4.27.41-6.45.41s-4.34-.14-6.45-.41c-2.33-.3-4.61-.76-6.83-1.38-5.85-1.61-11.28-4.25-16.06-7.74-.75-.54-1.49-1.1-2.21-1.69-1.51-1.22-2.94-2.53-4.28-3.92-1.68-1.72-3.23-3.57-4.64-5.52-3.49-4.78-6.13-10.21-7.74-16.06-.62-2.22-1.08-4.5-1.38-6.83-.27-2.11-.41-4.27-.41-6.45s.14-4.34.41-6.45c.3-2.33.76-4.61,1.38-6.83,1.61-5.85,4.25-11.28,7.74-16.06.54-.75,1.1-1.49,1.69-2.21,1.22-1.51,2.53-2.94,3.92-4.28,1.72-1.68,3.57-3.23,5.52-4.64,4.78-3.49,10.21-6.13,16.06-7.74,2.22-.62,4.5-1.08,6.83-1.38,2.11-.27,4.27-.41,6.45-.41s4.34.14,6.45.41c2.33.3,4.61.76,6.83,1.38,5.85,1.61,11.28,4.25,16.06,7.74.76.54,1.5,1.11,2.22,1.69,1.51,1.23,2.93,2.54,4.27,3.93,1.68,1.72,3.24,3.56,4.64,5.51,3.49,4.78,6.13,10.21,7.74,16.06.62,2.22,1.08,4.5,1.38,6.83.27,2.11.41,4.27.41,6.45Z" style="fill: #164194;"/>
      <path d="M100.59,43.55c-.3-2.33-.76-4.61-1.38-6.83h-23.8l16.06-16.06c-1.4-1.95-2.96-3.79-4.64-5.51-1.34-1.39-2.76-2.7-4.27-3.93-.72-.58-1.46-1.15-2.22-1.69l-16.06,16.06V1.79c-2.22-.62-4.5-1.08-6.83-1.38-2.11-.27-4.27-.41-6.45-.41s-4.34.14-6.45.41c-2.33.3-4.61.76-6.83,1.38v23.8L21.66,9.53c-1.95,1.41-3.8,2.96-5.52,4.64-1.39,1.34-2.7,2.77-3.92,4.28-.59.72-1.15,1.46-1.69,2.21l16.06,16.06H2.79c-.62,2.22-1.08,4.5-1.38,6.83-.27,2.11-.41,4.27-.41,6.45s.14,4.34.41,6.45c.3,2.33.76,4.61,1.38,6.83h23.8l-16.06,16.06c1.41,1.95,2.96,3.8,4.64,5.52,1.34,1.39,2.77,2.7,4.28,3.92.72.59,1.46,1.15,2.21,1.69l16.06-16.06v23.8c2.22.62,4.5,1.08,6.83,1.38,2.11.27,4.27.41,6.45.41s4.34-.14,6.45-.41c2.33-.3,4.61-.76,6.83-1.38v-23.8l16.06,16.06c1.95-1.4,3.79-2.96,5.51-4.64,1.39-1.34,2.7-2.76,3.93-4.27.58-.72,1.15-1.46,1.69-2.22l-16.06-16.06h23.8c.62-2.22,1.08-4.5,1.38-6.83.27-2.11.41-4.27.41-6.45s-.14-4.34-.41-6.45Z" style="fill: #fff;"/>
      <path d="M101,50c0-2.18-.14-4.34-.41-6.45h-43.14V.41c-2.11-.27-4.27-.41-6.45-.41s-4.34.14-6.45.41v43.14H1.41c-.27,2.11-.41,4.27-.41,6.45s.14,4.34.41,6.45h43.14v43.14c2.11.27,4.27.41,6.45.41s4.34-.14,6.45-.41v-43.14h43.14c.27-2.11.41-4.27.41-6.45Z" style="fill: #e30613;"/>
    </g>
    <path d="M37.72,63.28v7.23l-18.27,18.27c-1.51-1.22-2.94-2.53-4.28-3.92l21.58-21.58h.97Z" style="fill: #e30613;"/>
    <path d="M86.83,15.15l-21.57,21.57h-.98v-7.22l18.28-18.28c1.51,1.23,2.93,2.54,4.27,3.93Z" style="fill: #e30613;"/>
    <path d="M37.72,35.75v.97h-7.23L12.22,18.45c1.22-1.51,2.53-2.94,3.92-4.28l21.58,21.58Z" style="fill: #e30613;"/>
    <path d="M89.78,81.56c-1.23,1.51-2.54,2.93-3.93,4.27l-21.57-21.57v-.98h7.22l18.28,18.28Z" style="fill: #e30613;"/>
  </g>
</svg>