<?xml version="1.0" encoding="UTF-8"?>
<svg id="FLAGS" xmlns="http://www.w3.org/2000/svg" viewBox="0 0 100 100">
  <path d="M100,50c0,20.38-12.2,37.91-29.69,45.69V4.31c17.49,7.78,29.69,25.31,29.69,45.69Z" style="fill: #e30613;"/>
  <path d="M70.31,4.31v91.38c-1.19.54-2.4,1.02-3.64,1.45-5.21,1.86-10.83,2.86-16.67,2.86s-11.46-1-16.67-2.86c-1.24-.43-2.45-.91-3.64-1.45V4.31c1.19-.54,2.4-1.02,3.64-1.45,5.21-1.86,10.83-2.86,16.67-2.86s11.46,1,16.67,2.86c1.24.43,2.45.91,3.64,1.45Z" style="fill: #fff;"/>
  <path d="M29.69,4.31v91.38C12.2,87.91,0,70.38,0,50S12.2,12.09,29.69,4.31Z" style="fill: #164194;"/>
</svg>