<?xml version="1.0" encoding="UTF-8"?>
<svg id="FLAGS" xmlns="http://www.w3.org/2000/svg" viewBox="0 0 100 100">
  <g id="Russia">
    <path d="M95.69,29.69H4.31C12.09,12.2,29.62,0,50,0s37.91,12.2,45.69,29.69Z" style="fill: #fff;"/>
    <path d="M95.69,70.31c-7.78,17.49-25.31,29.69-45.69,29.69s-37.91-12.2-45.69-29.69h91.38Z" style="fill: #e30613;"/>
    <path d="M100,50c0,5.84-1,11.46-2.86,16.67-.43,1.24-.91,2.45-1.45,3.64H4.31c-.54-1.19-1.02-2.4-1.45-3.64-1.86-5.21-2.86-10.83-2.86-16.67s1-11.46,2.86-16.67c.43-1.24.91-2.45,1.45-3.64h91.38c.54,1.19,1.02,2.4,1.45,3.64,1.86,5.21,2.86,10.83,2.86,16.67Z" style="fill: #164194;"/>
  </g>
</svg>